<svg id="Layer_2" height="512" viewBox="0 0 128 128" width="512" xmlns="http://www.w3.org/2000/svg" data-name="Layer 2"><path d="m19.5 51.615 10 45.875h5.231a11.43 11.43 0 0 1 21.037 0h16.463a11.43 11.43 0 0 1 21.037 0h5.232l10-45.875z" fill="#5d4037"/><path d="m19.5 51.615.654 3h77.346a4.827 4.827 0 0 1 4.716 5.855l-8.066 37.02h4.35l10-45.875z" fill="#4c352e"/><path d="m10.333 41.115h107.333v10.5h-107.333z" fill="#fb8c00"/><path d="m10.333 41.115v3h95.833a7.5 7.5 0 0 1 7.5 7.5h4v-10.5z" fill="#ef6c00"/><circle cx="82.75" cy="101.959" r="11.427"/><g fill="#fb8c00"><path d="m55.769 106.427h16.462a11.45 11.45 0 0 1 0-8.938h-16.462a11.45 11.45 0 0 1 0 8.938z"/><path d="m33.823 101.959a11.388 11.388 0 0 1 .908-4.469h-15.731v8.938h15.731a11.388 11.388 0 0 1 -.908-4.469z"/><path d="m93.269 97.49a11.45 11.45 0 0 1 0 8.938h15.731v-8.938z"/></g><path d="m72.231 97.49h-16.462a11.367 11.367 0 0 1 .633 2h12.827a11.369 11.369 0 0 0 -.633 6.936h3.636a11.45 11.45 0 0 1 0-8.937z" fill="#ef6c00"/><path d="m34.731 97.49h-15.731v2h12.729a11.369 11.369 0 0 0 -.633 6.936h3.636a11.45 11.45 0 0 1 0-8.937z" fill="#ef6c00"/><path d="m93.269 97.49a11.367 11.367 0 0 1 .633 2h12.098v6.936h3v-8.936z" fill="#ef6c00"/><path d="m45.25 90.532a11.429 11.429 0 0 1 10.519 6.958h16.462a11.415 11.415 0 0 1 17.094-4.867l6.76-31.008h-64.17l6.76 31.008a11.363 11.363 0 0 1 6.575-2.091z" fill="#ffca90"/><path d="m93.094 75.337.383-1.757 2.608-11.965h-64.17l.873 4h52.086a5 5 0 0 1 4.885 6.065l-.034.154h-55.582l.763 3.5h54.057l-1.847 8.476h-50.363l.763 3.5h48.837l-.781 3.582a11.421 11.421 0 0 1 3.754 1.732l1.158-5.314.344-1.58z" fill="#dda976"/><path d="m19.5 41.115v-7.625l12.415-3.75 7.335-10.75 9.875-1.875 12.75 8.125 10.125 3.875 3.625 12z" fill="#5d4037"/><path d="m61.875 25.24 15.75-4.875 5.375-5.75h12.25l4.125 5.875 9.125 4.75v15.875h-32.875l-3.625-12z" fill="#5d4037"/><path d="m75.262 26.08-7.2-2.755-6.187 1.915 10.125 3.875 3.625 12h4.178z" fill="#4c352e"/><circle cx="45.25" cy="101.959" fill="#00acc1" r="11.427"/><circle cx="82.75" cy="101.959" fill="#00acc1" r="11.427"/><path d="m82.75 90.532a11.466 11.466 0 0 0 -1.5.11 11.414 11.414 0 0 1 0 22.634 11.422 11.422 0 1 0 1.5-22.743z" fill="#0097a7"/><path d="m45.25 90.532a11.466 11.466 0 0 0 -1.5.11 11.414 11.414 0 0 1 0 22.634 11.422 11.422 0 1 0 1.5-22.743z" fill="#0097a7"/><circle cx="82.75" cy="101.959" fill="#5d4037" r="4.427"/><path d="m82.75 97.532a4.394 4.394 0 0 0 -1 .124 4.415 4.415 0 0 1 0 8.605 4.423 4.423 0 1 0 1-8.729z" fill="#4c352e"/><circle cx="45.25" cy="101.959" fill="#5d4037" r="4.427"/><path d="m126.25 115.135h-124.5a1.75 1.75 0 0 1 0-3.5h124.5a1.75 1.75 0 0 1 0 3.5z" fill="#5d4037"/><path d="m45.25 97.532a4.394 4.394 0 0 0 -1 .124 4.415 4.415 0 0 1 0 8.605 4.423 4.423 0 1 0 1-8.729z" fill="#4c352e"/></svg>